<mxfile host="Electron" modified="2025-04-04T09:25:39.619Z" agent="Mozilla/5.0 (Macintosh; Intel Mac OS X 10_15_7) AppleWebKit/537.36 (KHTML, like Gecko) draw.io/22.1.18 Chrome/120.0.6099.199 Electron/28.1.2 Safari/537.36" etag="ul9j1NLLmMnfH4P_20FP" version="22.1.18" type="device" pages="3">
  <diagram name="Usecase diagram" id="u1lntK4HChI3Z0QwtSoi">
    <mxGraphModel dx="702" dy="485" grid="1" gridSize="10" guides="1" tooltips="1" connect="1" arrows="1" fold="1" page="1" pageScale="1" pageWidth="4681" pageHeight="3300" math="0" shadow="0">
      <root>
        <mxCell id="0" />
        <mxCell id="1" parent="0" />
        <mxCell id="N3IJg43B0DmR4RfcdHLM-10" style="edgeStyle=orthogonalEdgeStyle;rounded=0;orthogonalLoop=1;jettySize=auto;html=1;exitX=0.5;exitY=0.5;exitDx=0;exitDy=0;exitPerimeter=0;entryX=1;entryY=0.5;entryDx=0;entryDy=0;" edge="1" parent="1" source="N3IJg43B0DmR4RfcdHLM-1" target="N3IJg43B0DmR4RfcdHLM-2">
          <mxGeometry relative="1" as="geometry" />
        </mxCell>
        <mxCell id="N3IJg43B0DmR4RfcdHLM-11" style="edgeStyle=orthogonalEdgeStyle;rounded=0;orthogonalLoop=1;jettySize=auto;html=1;exitX=0.5;exitY=0.5;exitDx=0;exitDy=0;exitPerimeter=0;entryX=1;entryY=0.5;entryDx=0;entryDy=0;" edge="1" parent="1" source="N3IJg43B0DmR4RfcdHLM-1" target="N3IJg43B0DmR4RfcdHLM-3">
          <mxGeometry relative="1" as="geometry" />
        </mxCell>
        <mxCell id="N3IJg43B0DmR4RfcdHLM-12" style="edgeStyle=orthogonalEdgeStyle;rounded=0;orthogonalLoop=1;jettySize=auto;html=1;exitX=0.5;exitY=0.5;exitDx=0;exitDy=0;exitPerimeter=0;entryX=0;entryY=0.5;entryDx=0;entryDy=0;" edge="1" parent="1" source="N3IJg43B0DmR4RfcdHLM-1" target="N3IJg43B0DmR4RfcdHLM-7">
          <mxGeometry relative="1" as="geometry" />
        </mxCell>
        <mxCell id="N3IJg43B0DmR4RfcdHLM-13" style="edgeStyle=orthogonalEdgeStyle;rounded=0;orthogonalLoop=1;jettySize=auto;html=1;exitX=0.5;exitY=0.5;exitDx=0;exitDy=0;exitPerimeter=0;entryX=0;entryY=0.5;entryDx=0;entryDy=0;" edge="1" parent="1" source="N3IJg43B0DmR4RfcdHLM-1" target="N3IJg43B0DmR4RfcdHLM-6">
          <mxGeometry relative="1" as="geometry" />
        </mxCell>
        <mxCell id="N3IJg43B0DmR4RfcdHLM-15" style="edgeStyle=orthogonalEdgeStyle;rounded=0;orthogonalLoop=1;jettySize=auto;html=1;exitX=0.5;exitY=0.5;exitDx=0;exitDy=0;exitPerimeter=0;entryX=1;entryY=0.5;entryDx=0;entryDy=0;" edge="1" parent="1" source="N3IJg43B0DmR4RfcdHLM-1" target="N3IJg43B0DmR4RfcdHLM-4">
          <mxGeometry relative="1" as="geometry" />
        </mxCell>
        <mxCell id="N3IJg43B0DmR4RfcdHLM-16" style="edgeStyle=orthogonalEdgeStyle;rounded=0;orthogonalLoop=1;jettySize=auto;html=1;exitX=0.5;exitY=0.5;exitDx=0;exitDy=0;exitPerimeter=0;entryX=1;entryY=0.5;entryDx=0;entryDy=0;" edge="1" parent="1" source="N3IJg43B0DmR4RfcdHLM-1" target="N3IJg43B0DmR4RfcdHLM-5">
          <mxGeometry relative="1" as="geometry" />
        </mxCell>
        <mxCell id="N3IJg43B0DmR4RfcdHLM-17" style="edgeStyle=orthogonalEdgeStyle;rounded=0;orthogonalLoop=1;jettySize=auto;html=1;exitX=0.5;exitY=0.5;exitDx=0;exitDy=0;exitPerimeter=0;entryX=0;entryY=0.5;entryDx=0;entryDy=0;" edge="1" parent="1" source="N3IJg43B0DmR4RfcdHLM-1" target="N3IJg43B0DmR4RfcdHLM-8">
          <mxGeometry relative="1" as="geometry" />
        </mxCell>
        <mxCell id="N3IJg43B0DmR4RfcdHLM-18" style="edgeStyle=orthogonalEdgeStyle;rounded=0;orthogonalLoop=1;jettySize=auto;html=1;exitX=0.5;exitY=0.5;exitDx=0;exitDy=0;exitPerimeter=0;entryX=0;entryY=0.5;entryDx=0;entryDy=0;" edge="1" parent="1" source="N3IJg43B0DmR4RfcdHLM-1" target="N3IJg43B0DmR4RfcdHLM-9">
          <mxGeometry relative="1" as="geometry" />
        </mxCell>
        <mxCell id="N3IJg43B0DmR4RfcdHLM-1" value="User" style="shape=umlActor;verticalLabelPosition=bottom;verticalAlign=top;html=1;outlineConnect=0;" vertex="1" parent="1">
          <mxGeometry x="280" y="160" width="40" height="80" as="geometry" />
        </mxCell>
        <mxCell id="N3IJg43B0DmR4RfcdHLM-2" value="Đăng kí" style="ellipse;whiteSpace=wrap;html=1;" vertex="1" parent="1">
          <mxGeometry x="80" y="210" width="120" height="60" as="geometry" />
        </mxCell>
        <mxCell id="N3IJg43B0DmR4RfcdHLM-3" value="Đăng nhập" style="ellipse;whiteSpace=wrap;html=1;" vertex="1" parent="1">
          <mxGeometry x="80" y="290" width="120" height="60" as="geometry" />
        </mxCell>
        <mxCell id="N3IJg43B0DmR4RfcdHLM-4" value="Xem danh sách &lt;br&gt;sản phẩm" style="ellipse;whiteSpace=wrap;html=1;" vertex="1" parent="1">
          <mxGeometry x="80" y="130" width="120" height="60" as="geometry" />
        </mxCell>
        <mxCell id="N3IJg43B0DmR4RfcdHLM-5" value="Xem chi tiết &lt;br&gt;sản phẩm" style="ellipse;whiteSpace=wrap;html=1;" vertex="1" parent="1">
          <mxGeometry x="80" y="50" width="120" height="60" as="geometry" />
        </mxCell>
        <mxCell id="N3IJg43B0DmR4RfcdHLM-6" value="Thêm sản phẩm &lt;br&gt;vào giỏ hàng" style="ellipse;whiteSpace=wrap;html=1;" vertex="1" parent="1">
          <mxGeometry x="400" y="290" width="120" height="60" as="geometry" />
        </mxCell>
        <mxCell id="N3IJg43B0DmR4RfcdHLM-7" value="Xem giỏ hàng" style="ellipse;whiteSpace=wrap;html=1;" vertex="1" parent="1">
          <mxGeometry x="400" y="210" width="120" height="60" as="geometry" />
        </mxCell>
        <mxCell id="N3IJg43B0DmR4RfcdHLM-8" value="Tạo đơn hàng" style="ellipse;whiteSpace=wrap;html=1;" vertex="1" parent="1">
          <mxGeometry x="400" y="130" width="120" height="60" as="geometry" />
        </mxCell>
        <mxCell id="N3IJg43B0DmR4RfcdHLM-9" value="Xem danh sách &lt;br&gt;đơn hàng" style="ellipse;whiteSpace=wrap;html=1;" vertex="1" parent="1">
          <mxGeometry x="400" y="50" width="120" height="60" as="geometry" />
        </mxCell>
      </root>
    </mxGraphModel>
  </diagram>
  <diagram id="eoFwet8DaeCGL5DHH2Th" name="Activity diagram">
    <mxGraphModel dx="1706" dy="1177" grid="1" gridSize="10" guides="1" tooltips="1" connect="1" arrows="1" fold="1" page="1" pageScale="1" pageWidth="4681" pageHeight="3300" math="0" shadow="0">
      <root>
        <mxCell id="0" />
        <mxCell id="1" parent="0" />
        <mxCell id="FRAqKogddENDzY84x3RC-2" value="" style="ellipse;html=1;shape=startState;fillColor=#000000;strokeColor=#ff0000;" vertex="1" parent="1">
          <mxGeometry x="360" y="120" width="40" height="40" as="geometry" />
        </mxCell>
        <mxCell id="FRAqKogddENDzY84x3RC-3" value="" style="edgeStyle=orthogonalEdgeStyle;html=1;verticalAlign=bottom;endArrow=classic;endSize=8;strokeColor=#000000;rounded=0;entryX=0.5;entryY=0;entryDx=0;entryDy=0;endFill=1;" edge="1" source="FRAqKogddENDzY84x3RC-2" parent="1" target="FRAqKogddENDzY84x3RC-5">
          <mxGeometry relative="1" as="geometry">
            <mxPoint x="380" y="240" as="targetPoint" />
          </mxGeometry>
        </mxCell>
        <mxCell id="FRAqKogddENDzY84x3RC-4" value="" style="ellipse;html=1;shape=endState;fillColor=#000000;strokeColor=#ff0000;" vertex="1" parent="1">
          <mxGeometry x="360" y="760" width="40" height="40" as="geometry" />
        </mxCell>
        <mxCell id="FRAqKogddENDzY84x3RC-7" style="edgeStyle=orthogonalEdgeStyle;rounded=0;orthogonalLoop=1;jettySize=auto;html=1;exitX=0.5;exitY=1;exitDx=0;exitDy=0;entryX=0.5;entryY=0;entryDx=0;entryDy=0;" edge="1" parent="1" source="FRAqKogddENDzY84x3RC-5" target="FRAqKogddENDzY84x3RC-6">
          <mxGeometry relative="1" as="geometry" />
        </mxCell>
        <mxCell id="FRAqKogddENDzY84x3RC-5" value="Hiển thị modal &lt;br&gt;đăng nhập" style="rounded=1;whiteSpace=wrap;html=1;" vertex="1" parent="1">
          <mxGeometry x="320" y="210" width="120" height="60" as="geometry" />
        </mxCell>
        <mxCell id="FRAqKogddENDzY84x3RC-9" style="edgeStyle=orthogonalEdgeStyle;rounded=0;orthogonalLoop=1;jettySize=auto;html=1;exitX=0.5;exitY=1;exitDx=0;exitDy=0;" edge="1" parent="1" source="FRAqKogddENDzY84x3RC-6" target="FRAqKogddENDzY84x3RC-8">
          <mxGeometry relative="1" as="geometry" />
        </mxCell>
        <mxCell id="FRAqKogddENDzY84x3RC-6" value="Người dùng nhập email và mật khẩu" style="rounded=1;whiteSpace=wrap;html=1;" vertex="1" parent="1">
          <mxGeometry x="320" y="310" width="120" height="60" as="geometry" />
        </mxCell>
        <mxCell id="FRAqKogddENDzY84x3RC-11" value="Sai" style="edgeStyle=orthogonalEdgeStyle;rounded=0;orthogonalLoop=1;jettySize=auto;html=1;exitX=1;exitY=0.5;exitDx=0;exitDy=0;" edge="1" parent="1" source="FRAqKogddENDzY84x3RC-8" target="FRAqKogddENDzY84x3RC-10">
          <mxGeometry relative="1" as="geometry" />
        </mxCell>
        <mxCell id="FRAqKogddENDzY84x3RC-14" value="Đúng" style="edgeStyle=orthogonalEdgeStyle;rounded=0;orthogonalLoop=1;jettySize=auto;html=1;exitX=0.5;exitY=1;exitDx=0;exitDy=0;" edge="1" parent="1" source="FRAqKogddENDzY84x3RC-8" target="FRAqKogddENDzY84x3RC-13">
          <mxGeometry relative="1" as="geometry" />
        </mxCell>
        <mxCell id="FRAqKogddENDzY84x3RC-8" value="Xác thực thông &lt;br&gt;tin tài khoản" style="rhombus;whiteSpace=wrap;html=1;" vertex="1" parent="1">
          <mxGeometry x="320" y="420" width="120" height="80" as="geometry" />
        </mxCell>
        <mxCell id="FRAqKogddENDzY84x3RC-12" style="edgeStyle=orthogonalEdgeStyle;rounded=0;orthogonalLoop=1;jettySize=auto;html=1;exitX=0.5;exitY=0;exitDx=0;exitDy=0;entryX=1;entryY=0.5;entryDx=0;entryDy=0;" edge="1" parent="1" source="FRAqKogddENDzY84x3RC-10" target="FRAqKogddENDzY84x3RC-5">
          <mxGeometry relative="1" as="geometry" />
        </mxCell>
        <mxCell id="FRAqKogddENDzY84x3RC-10" value="Hiển thị thông báo lỗi" style="rounded=1;whiteSpace=wrap;html=1;" vertex="1" parent="1">
          <mxGeometry x="520" y="430" width="120" height="60" as="geometry" />
        </mxCell>
        <mxCell id="FRAqKogddENDzY84x3RC-16" style="edgeStyle=orthogonalEdgeStyle;rounded=0;orthogonalLoop=1;jettySize=auto;html=1;exitX=0.5;exitY=1;exitDx=0;exitDy=0;entryX=0.5;entryY=0;entryDx=0;entryDy=0;" edge="1" parent="1" source="FRAqKogddENDzY84x3RC-13" target="FRAqKogddENDzY84x3RC-15">
          <mxGeometry relative="1" as="geometry" />
        </mxCell>
        <mxCell id="FRAqKogddENDzY84x3RC-13" value="Đăng nhập thành công" style="rounded=1;whiteSpace=wrap;html=1;" vertex="1" parent="1">
          <mxGeometry x="320" y="550" width="120" height="60" as="geometry" />
        </mxCell>
        <mxCell id="FRAqKogddENDzY84x3RC-17" style="edgeStyle=orthogonalEdgeStyle;rounded=0;orthogonalLoop=1;jettySize=auto;html=1;exitX=0.5;exitY=1;exitDx=0;exitDy=0;entryX=0.5;entryY=0;entryDx=0;entryDy=0;" edge="1" parent="1" source="FRAqKogddENDzY84x3RC-15" target="FRAqKogddENDzY84x3RC-4">
          <mxGeometry relative="1" as="geometry" />
        </mxCell>
        <mxCell id="FRAqKogddENDzY84x3RC-15" value="Chuyển đến trang chủ" style="rounded=1;whiteSpace=wrap;html=1;" vertex="1" parent="1">
          <mxGeometry x="320" y="650" width="120" height="60" as="geometry" />
        </mxCell>
        <mxCell id="FRAqKogddENDzY84x3RC-18" value="" style="ellipse;html=1;shape=startState;fillColor=#000000;strokeColor=#ff0000;" vertex="1" parent="1">
          <mxGeometry x="840" y="120" width="40" height="40" as="geometry" />
        </mxCell>
        <mxCell id="FRAqKogddENDzY84x3RC-19" value="" style="edgeStyle=orthogonalEdgeStyle;html=1;verticalAlign=bottom;endArrow=classic;endSize=8;strokeColor=#000000;rounded=0;entryX=0.5;entryY=0;entryDx=0;entryDy=0;endFill=1;" edge="1" source="FRAqKogddENDzY84x3RC-18" target="FRAqKogddENDzY84x3RC-22" parent="1">
          <mxGeometry relative="1" as="geometry">
            <mxPoint x="860" y="240" as="targetPoint" />
          </mxGeometry>
        </mxCell>
        <mxCell id="FRAqKogddENDzY84x3RC-20" value="" style="ellipse;html=1;shape=endState;fillColor=#000000;strokeColor=#ff0000;" vertex="1" parent="1">
          <mxGeometry x="840" y="820" width="40" height="40" as="geometry" />
        </mxCell>
        <mxCell id="FRAqKogddENDzY84x3RC-21" style="edgeStyle=orthogonalEdgeStyle;rounded=0;orthogonalLoop=1;jettySize=auto;html=1;exitX=0.5;exitY=1;exitDx=0;exitDy=0;entryX=0.5;entryY=0;entryDx=0;entryDy=0;" edge="1" source="FRAqKogddENDzY84x3RC-22" target="FRAqKogddENDzY84x3RC-24" parent="1">
          <mxGeometry relative="1" as="geometry" />
        </mxCell>
        <mxCell id="FRAqKogddENDzY84x3RC-22" value="Hiển thị trang chi tiết sản phẩm" style="rounded=1;whiteSpace=wrap;html=1;" vertex="1" parent="1">
          <mxGeometry x="800" y="210" width="120" height="60" as="geometry" />
        </mxCell>
        <mxCell id="FRAqKogddENDzY84x3RC-23" style="edgeStyle=orthogonalEdgeStyle;rounded=0;orthogonalLoop=1;jettySize=auto;html=1;exitX=0.5;exitY=1;exitDx=0;exitDy=0;" edge="1" source="FRAqKogddENDzY84x3RC-24" target="FRAqKogddENDzY84x3RC-31" parent="1">
          <mxGeometry relative="1" as="geometry">
            <mxPoint x="859.9999999999998" y="420" as="targetPoint" />
          </mxGeometry>
        </mxCell>
        <mxCell id="FRAqKogddENDzY84x3RC-24" value="Người dùng chọn màu và kích thước sản phẩm" style="rounded=1;whiteSpace=wrap;html=1;" vertex="1" parent="1">
          <mxGeometry x="800" y="310" width="120" height="60" as="geometry" />
        </mxCell>
        <mxCell id="FRAqKogddENDzY84x3RC-35" style="edgeStyle=orthogonalEdgeStyle;rounded=0;orthogonalLoop=1;jettySize=auto;html=1;exitX=0.5;exitY=1;exitDx=0;exitDy=0;entryX=0.5;entryY=0;entryDx=0;entryDy=0;" edge="1" parent="1" source="FRAqKogddENDzY84x3RC-31" target="FRAqKogddENDzY84x3RC-34">
          <mxGeometry relative="1" as="geometry" />
        </mxCell>
        <mxCell id="FRAqKogddENDzY84x3RC-31" value="Người dùng bấm nút thêm sản phẩm vào giỏ hàng" style="rounded=1;whiteSpace=wrap;html=1;" vertex="1" parent="1">
          <mxGeometry x="800" y="410" width="120" height="60" as="geometry" />
        </mxCell>
        <mxCell id="FRAqKogddENDzY84x3RC-32" style="edgeStyle=orthogonalEdgeStyle;rounded=0;orthogonalLoop=1;jettySize=auto;html=1;exitX=0.5;exitY=1;exitDx=0;exitDy=0;entryX=1;entryY=0.5;entryDx=0;entryDy=0;" edge="1" source="FRAqKogddENDzY84x3RC-33" target="FRAqKogddENDzY84x3RC-20" parent="1">
          <mxGeometry relative="1" as="geometry" />
        </mxCell>
        <mxCell id="FRAqKogddENDzY84x3RC-33" value="Chuyển đến trang chủ" style="rounded=1;whiteSpace=wrap;html=1;" vertex="1" parent="1">
          <mxGeometry x="1000" y="630" width="120" height="60" as="geometry" />
        </mxCell>
        <mxCell id="FRAqKogddENDzY84x3RC-37" value="False" style="edgeStyle=orthogonalEdgeStyle;rounded=0;orthogonalLoop=1;jettySize=auto;html=1;exitX=1;exitY=0.5;exitDx=0;exitDy=0;entryX=0;entryY=0.5;entryDx=0;entryDy=0;" edge="1" parent="1" source="FRAqKogddENDzY84x3RC-34" target="FRAqKogddENDzY84x3RC-36">
          <mxGeometry relative="1" as="geometry" />
        </mxCell>
        <mxCell id="FRAqKogddENDzY84x3RC-41" value="True" style="edgeStyle=orthogonalEdgeStyle;rounded=0;orthogonalLoop=1;jettySize=auto;html=1;exitX=0.5;exitY=1;exitDx=0;exitDy=0;entryX=0.5;entryY=0;entryDx=0;entryDy=0;" edge="1" parent="1" source="FRAqKogddENDzY84x3RC-34" target="FRAqKogddENDzY84x3RC-40">
          <mxGeometry relative="1" as="geometry" />
        </mxCell>
        <mxCell id="FRAqKogddENDzY84x3RC-34" value="Người dùng &lt;br&gt;đã đăng nhập" style="rhombus;whiteSpace=wrap;html=1;" vertex="1" parent="1">
          <mxGeometry x="800" y="500" width="120" height="80" as="geometry" />
        </mxCell>
        <mxCell id="FRAqKogddENDzY84x3RC-39" style="edgeStyle=orthogonalEdgeStyle;rounded=0;orthogonalLoop=1;jettySize=auto;html=1;exitX=0.5;exitY=1;exitDx=0;exitDy=0;entryX=0.5;entryY=0;entryDx=0;entryDy=0;" edge="1" parent="1" source="FRAqKogddENDzY84x3RC-36" target="FRAqKogddENDzY84x3RC-33">
          <mxGeometry relative="1" as="geometry" />
        </mxCell>
        <mxCell id="FRAqKogddENDzY84x3RC-36" value="Thông báo lỗi yêu cầu đăng nhập" style="rounded=1;whiteSpace=wrap;html=1;" vertex="1" parent="1">
          <mxGeometry x="1000" y="510" width="120" height="60" as="geometry" />
        </mxCell>
        <mxCell id="FRAqKogddENDzY84x3RC-43" style="edgeStyle=orthogonalEdgeStyle;rounded=0;orthogonalLoop=1;jettySize=auto;html=1;exitX=0.5;exitY=1;exitDx=0;exitDy=0;entryX=0.5;entryY=0;entryDx=0;entryDy=0;" edge="1" parent="1" source="FRAqKogddENDzY84x3RC-40" target="FRAqKogddENDzY84x3RC-42">
          <mxGeometry relative="1" as="geometry" />
        </mxCell>
        <mxCell id="FRAqKogddENDzY84x3RC-40" value="Thông báo thêm sản phẩm vào giỏ hàng thành công" style="rounded=1;whiteSpace=wrap;html=1;" vertex="1" parent="1">
          <mxGeometry x="800" y="630" width="120" height="60" as="geometry" />
        </mxCell>
        <mxCell id="FRAqKogddENDzY84x3RC-44" style="edgeStyle=orthogonalEdgeStyle;rounded=0;orthogonalLoop=1;jettySize=auto;html=1;exitX=0.5;exitY=1;exitDx=0;exitDy=0;entryX=0.5;entryY=0;entryDx=0;entryDy=0;" edge="1" parent="1" source="FRAqKogddENDzY84x3RC-42" target="FRAqKogddENDzY84x3RC-20">
          <mxGeometry relative="1" as="geometry" />
        </mxCell>
        <mxCell id="FRAqKogddENDzY84x3RC-42" value="Quay trở lại trang chi tiết sản phẩm" style="rounded=1;whiteSpace=wrap;html=1;" vertex="1" parent="1">
          <mxGeometry x="800" y="730" width="120" height="60" as="geometry" />
        </mxCell>
        <mxCell id="FRAqKogddENDzY84x3RC-45" value="" style="ellipse;html=1;shape=startState;fillColor=#000000;strokeColor=#ff0000;" vertex="1" parent="1">
          <mxGeometry x="1320" y="120" width="40" height="40" as="geometry" />
        </mxCell>
        <mxCell id="FRAqKogddENDzY84x3RC-46" value="" style="edgeStyle=orthogonalEdgeStyle;html=1;verticalAlign=bottom;endArrow=classic;endSize=8;strokeColor=#000000;rounded=0;entryX=0.5;entryY=0;entryDx=0;entryDy=0;endFill=1;" edge="1" source="FRAqKogddENDzY84x3RC-45" target="FRAqKogddENDzY84x3RC-49" parent="1">
          <mxGeometry relative="1" as="geometry">
            <mxPoint x="1340" y="240" as="targetPoint" />
          </mxGeometry>
        </mxCell>
        <mxCell id="FRAqKogddENDzY84x3RC-47" value="" style="ellipse;html=1;shape=endState;fillColor=#000000;strokeColor=#ff0000;" vertex="1" parent="1">
          <mxGeometry x="1320" y="820" width="40" height="40" as="geometry" />
        </mxCell>
        <mxCell id="FRAqKogddENDzY84x3RC-48" style="edgeStyle=orthogonalEdgeStyle;rounded=0;orthogonalLoop=1;jettySize=auto;html=1;exitX=0.5;exitY=1;exitDx=0;exitDy=0;entryX=0.5;entryY=0;entryDx=0;entryDy=0;" edge="1" source="FRAqKogddENDzY84x3RC-49" target="FRAqKogddENDzY84x3RC-51" parent="1">
          <mxGeometry relative="1" as="geometry" />
        </mxCell>
        <mxCell id="FRAqKogddENDzY84x3RC-49" value="Hiển thị trang giỏ hàng người dùng" style="rounded=1;whiteSpace=wrap;html=1;" vertex="1" parent="1">
          <mxGeometry x="1280" y="210" width="120" height="60" as="geometry" />
        </mxCell>
        <mxCell id="FRAqKogddENDzY84x3RC-50" style="edgeStyle=orthogonalEdgeStyle;rounded=0;orthogonalLoop=1;jettySize=auto;html=1;exitX=0.5;exitY=1;exitDx=0;exitDy=0;" edge="1" source="FRAqKogddENDzY84x3RC-51" target="FRAqKogddENDzY84x3RC-53" parent="1">
          <mxGeometry relative="1" as="geometry">
            <mxPoint x="1339.9999999999998" y="420" as="targetPoint" />
          </mxGeometry>
        </mxCell>
        <mxCell id="FRAqKogddENDzY84x3RC-51" value="Người dùng chọn các sản phẩm muốn đặt" style="rounded=1;whiteSpace=wrap;html=1;" vertex="1" parent="1">
          <mxGeometry x="1280" y="310" width="120" height="60" as="geometry" />
        </mxCell>
        <mxCell id="FRAqKogddENDzY84x3RC-52" style="edgeStyle=orthogonalEdgeStyle;rounded=0;orthogonalLoop=1;jettySize=auto;html=1;exitX=0.5;exitY=1;exitDx=0;exitDy=0;entryX=0.5;entryY=0;entryDx=0;entryDy=0;" edge="1" source="FRAqKogddENDzY84x3RC-53" target="FRAqKogddENDzY84x3RC-65" parent="1">
          <mxGeometry relative="1" as="geometry">
            <mxPoint x="1340" y="500" as="targetPoint" />
          </mxGeometry>
        </mxCell>
        <mxCell id="FRAqKogddENDzY84x3RC-53" value="Người dùng điền thông tin địa chỉ nhận hàng và số điện thoại" style="rounded=1;whiteSpace=wrap;html=1;" vertex="1" parent="1">
          <mxGeometry x="1280" y="410" width="120" height="60" as="geometry" />
        </mxCell>
        <mxCell id="FRAqKogddENDzY84x3RC-67" style="edgeStyle=orthogonalEdgeStyle;rounded=0;orthogonalLoop=1;jettySize=auto;html=1;exitX=0.5;exitY=1;exitDx=0;exitDy=0;entryX=0.5;entryY=0;entryDx=0;entryDy=0;" edge="1" parent="1" source="FRAqKogddENDzY84x3RC-65" target="FRAqKogddENDzY84x3RC-66">
          <mxGeometry relative="1" as="geometry" />
        </mxCell>
        <mxCell id="FRAqKogddENDzY84x3RC-65" value="Người dùng bấm &lt;br&gt;nút đặt hàng" style="rounded=1;whiteSpace=wrap;html=1;" vertex="1" parent="1">
          <mxGeometry x="1280" y="510" width="120" height="60" as="geometry" />
        </mxCell>
        <mxCell id="FRAqKogddENDzY84x3RC-70" value="False" style="edgeStyle=orthogonalEdgeStyle;rounded=0;orthogonalLoop=1;jettySize=auto;html=1;exitX=1;exitY=0.5;exitDx=0;exitDy=0;entryX=0;entryY=0.5;entryDx=0;entryDy=0;" edge="1" parent="1" source="FRAqKogddENDzY84x3RC-66" target="FRAqKogddENDzY84x3RC-68">
          <mxGeometry relative="1" as="geometry" />
        </mxCell>
        <mxCell id="FRAqKogddENDzY84x3RC-72" value="True" style="edgeStyle=orthogonalEdgeStyle;rounded=0;orthogonalLoop=1;jettySize=auto;html=1;exitX=0.5;exitY=1;exitDx=0;exitDy=0;entryX=0.5;entryY=0;entryDx=0;entryDy=0;" edge="1" parent="1" source="FRAqKogddENDzY84x3RC-66" target="FRAqKogddENDzY84x3RC-71">
          <mxGeometry relative="1" as="geometry" />
        </mxCell>
        <mxCell id="FRAqKogddENDzY84x3RC-66" value="Đơn hàng đặt &lt;br&gt;thành công" style="rhombus;whiteSpace=wrap;html=1;" vertex="1" parent="1">
          <mxGeometry x="1280" y="600" width="120" height="80" as="geometry" />
        </mxCell>
        <mxCell id="FRAqKogddENDzY84x3RC-69" style="edgeStyle=orthogonalEdgeStyle;rounded=0;orthogonalLoop=1;jettySize=auto;html=1;exitX=0.5;exitY=0;exitDx=0;exitDy=0;entryX=1;entryY=0.5;entryDx=0;entryDy=0;" edge="1" parent="1" source="FRAqKogddENDzY84x3RC-68" target="FRAqKogddENDzY84x3RC-49">
          <mxGeometry relative="1" as="geometry" />
        </mxCell>
        <mxCell id="FRAqKogddENDzY84x3RC-68" value="Hiển thị lỗi và thông báo đặt hàng thất bại" style="rounded=1;whiteSpace=wrap;html=1;" vertex="1" parent="1">
          <mxGeometry x="1480" y="610" width="120" height="60" as="geometry" />
        </mxCell>
        <mxCell id="FRAqKogddENDzY84x3RC-74" style="edgeStyle=orthogonalEdgeStyle;rounded=0;orthogonalLoop=1;jettySize=auto;html=1;exitX=0.5;exitY=1;exitDx=0;exitDy=0;entryX=0.5;entryY=0;entryDx=0;entryDy=0;" edge="1" parent="1" source="FRAqKogddENDzY84x3RC-71" target="FRAqKogddENDzY84x3RC-47">
          <mxGeometry relative="1" as="geometry" />
        </mxCell>
        <mxCell id="FRAqKogddENDzY84x3RC-71" value="Hiển thị thông báo &lt;br&gt;đặt hàng thành công" style="rounded=1;whiteSpace=wrap;html=1;" vertex="1" parent="1">
          <mxGeometry x="1280" y="730" width="120" height="60" as="geometry" />
        </mxCell>
      </root>
    </mxGraphModel>
  </diagram>
  <diagram id="K7HZOEFWO6ONfupMipki" name="Sequence diagram">
    <mxGraphModel dx="1194" dy="824" grid="1" gridSize="10" guides="1" tooltips="1" connect="1" arrows="1" fold="1" page="1" pageScale="1" pageWidth="4681" pageHeight="3300" math="0" shadow="0">
      <root>
        <mxCell id="0" />
        <mxCell id="1" parent="0" />
      </root>
    </mxGraphModel>
  </diagram>
</mxfile>
